<?xml version="1.0" encoding="UTF-8"?>
<svg version="1.1" xmlns="http://www.w3.org/2000/svg" width="66" height="98">
<path d="M0 0 C3.60763771 0.22978584 6.89634815 -0.23976903 10.453125 -0.84375 C10.123125 -0.039375 9.793125 0.765 9.453125 1.59375 C8.39253459 3.85306125 8.39253459 3.85306125 8.453125 5.15625 C9.37544922 4.48916016 9.37544922 4.48916016 10.31640625 3.80859375 C11.52876953 2.95974609 11.52876953 2.95974609 12.765625 2.09375 C13.96638672 1.24103516 13.96638672 1.24103516 15.19140625 0.37109375 C15.93777344 -0.02980469 16.68414062 -0.43070313 17.453125 -0.84375 C18.443125 -0.51375 19.433125 -0.18375 20.453125 0.15625 C20.453125 1.47625 20.453125 2.79625 20.453125 4.15625 C19.793125 4.48625 19.133125 4.81625 18.453125 5.15625 C17.46357662 8.12489514 17.33946299 10.01812383 17.35888672 13.11157227 C17.36153534 14.12014786 17.36418396 15.12872345 17.36691284 16.16786194 C17.37215973 17.25844406 17.37740662 18.34902618 17.3828125 19.47265625 C17.37422368 21.78711688 17.36374605 24.10157113 17.3515625 26.41601562 C17.33491039 30.06111324 17.32802738 33.70479011 17.35351562 37.34985352 C17.37458931 40.87083549 17.35114057 44.38929296 17.3203125 47.91015625 C17.33770477 48.98656876 17.35509705 50.06298126 17.37301636 51.17201233 C17.24400961 59.34692605 14.682736 63.97782711 9.453125 70.15625 C8.31423828 71.58324219 8.31423828 71.58324219 7.15234375 73.0390625 C-7.06307477 88.88304353 -7.06307477 88.88304353 -13.7265625 89.2890625 C-20.71011984 89.2688203 -27.59718345 88.83545197 -34.546875 88.15625 C-34.23866853 90.10941583 -34.23866853 90.10941583 -33.546875 92.15625 C-31.90544537 93.1971566 -30.23975285 94.20129326 -28.546875 95.15625 C-28.546875 95.81625 -28.546875 96.47625 -28.546875 97.15625 C-34.53342209 97.75490471 -34.53342209 97.75490471 -37.3125 96.11328125 C-40.63927744 93.35980769 -42.36807692 91.6272706 -42.890625 87.328125 C-43.30056137 78.3505186 -43.30056137 78.3505186 -41.23046875 75.0703125 C-38.37414816 72.55266079 -35.37398793 71.00111665 -31.859375 69.59375 C-28.15242648 67.98507423 -26.72627726 66.50917656 -24.546875 63.15625 C-23.44172734 59.84080701 -23.22579869 56.95214889 -22.984375 53.46875 C-22.90058594 52.28925781 -22.81679688 51.10976563 -22.73046875 49.89453125 C-22.63958984 48.53908203 -22.63958984 48.53908203 -22.546875 47.15625 C-26.01173207 47.77657476 -26.01173207 47.77657476 -29.546875 49.15625 C-31.06480144 51.65266128 -31.06480144 51.65266128 -31.546875 54.15625 C-33.484375 53.84375 -33.484375 53.84375 -35.546875 53.15625 C-37.16074027 48.31465419 -37.38303987 43.94803187 -35.234375 39.34375 C-34.6775 38.621875 -34.120625 37.9 -33.546875 37.15625 C-33.155 36.599375 -32.763125 36.0425 -32.359375 35.46875 C-29.3949154 33.32207236 -26.10313562 32.91414161 -22.546875 32.15625 C-22.57910156 31.599375 -22.61132812 31.0425 -22.64453125 30.46875 C-22.58177341 26.34067859 -22.25086462 23.96517392 -19.4765625 20.77734375 C-17.22635896 18.80577043 -14.94972879 16.93775978 -12.546875 15.15625 C-15.10749266 14.73800575 -17.66771065 14.34626634 -20.234375 13.96875 C-21.3162207 13.78795898 -21.3162207 13.78795898 -22.41992188 13.60351562 C-27.21936632 12.92414221 -29.67261464 13.25055473 -33.546875 16.15625 C-35.859375 16.84375 -35.859375 16.84375 -37.546875 17.15625 C-37.876875 16.16625 -38.206875 15.17625 -38.546875 14.15625 C-35.73184469 8.52618938 -31.61357873 2.99813128 -26.03515625 -0.078125 C-17.82530652 -2.60423261 -8.40316109 -0.90572994 0 0 Z M-0.01953125 10.546875 C-0.54417969 11.16046875 -1.06882812 11.7740625 -1.609375 12.40625 C-2.13660156 13.00953125 -2.66382812 13.6128125 -3.20703125 14.234375 C-6.10845964 18.39619065 -5.70848198 23.08628449 -5.7578125 27.9921875 C-5.78588042 29.54688554 -5.81454488 31.10157291 -5.84375 32.65625 C-5.88496922 35.09407252 -5.92187982 37.53169552 -5.94824219 39.96972656 C-5.97596372 42.33179246 -6.0218276 44.69296842 -6.0703125 47.0546875 C-6.07356537 47.77675385 -6.07681824 48.49882019 -6.08016968 49.24276733 C-6.21223017 54.72211381 -7.48016388 58.80817969 -11.125 62.94921875 C-15.07939329 66.24762623 -18.70604086 68.3779844 -23.546875 70.15625 C-20.20521902 72.38402065 -16.74846445 73.8454876 -13.046875 75.34375 C-12.37011719 75.62927734 -11.69335938 75.91480469 -10.99609375 76.20898438 C-6.86270201 77.96821247 -6.86270201 77.96821247 -2.546875 77.15625 C-2.54100876 76.48719131 -2.53514252 75.81813263 -2.52909851 75.12879944 C-2.46493688 68.13629375 -2.38045885 61.14423863 -2.28442383 54.15209961 C-2.25126374 51.54604042 -2.22320435 48.93991096 -2.20043945 46.33374023 C-2.16673011 42.5776589 -2.11440388 38.82221645 -2.05859375 35.06640625 C-2.05220383 33.90979996 -2.0458139 32.75319366 -2.03923035 31.5615387 C-1.88817465 23.16355684 -0.37175997 16.60502405 3.453125 9.15625 C1.35790116 8.92739437 1.35790116 8.92739437 -0.01953125 10.546875 Z " fill="#000000" transform="translate(42.546875,0.84375)"/>
</svg>
